<?xml version="1.0" encoding="UTF-8" standalone="no"?>
<svg
   inkscape:export-ydpi="96"
   inkscape:export-xdpi="96"
   inkscape:export-filename="/home/patrick/GitHub/inkscape-survex-export/farcountry_ulsaj89_inkscape.png"
   sodipodi:docname="farcountry_ulsaj89.svg"
   inkscape:version="1.1 (c68e22c387, 2021-05-23)"
   version="1.1"
   id="svg2"
   viewBox="0 0 1052.3622 744.09448"
   height="210mm"
   width="297mm"
   xmlns:inkscape="http://www.inkscape.org/namespaces/inkscape"
   xmlns:sodipodi="http://sodipodi.sourceforge.net/DTD/sodipodi-0.dtd"
   xmlns:xlink="http://www.w3.org/1999/xlink"
   xmlns="http://www.w3.org/2000/svg"
   xmlns:svg="http://www.w3.org/2000/svg"
   xmlns:rdf="http://www.w3.org/1999/02/22-rdf-syntax-ns#"
   xmlns:cc="http://creativecommons.org/ns#"
   xmlns:dc="http://purl.org/dc/elements/1.1/">
  <defs
     id="defs4">
    <marker
       style="overflow:visible;"
       id="Arrow1Lend"
       refX="0.0"
       refY="0.0"
       orient="auto"
       inkscape:stockid="Arrow1Lend"
       inkscape:isstock="true">
      <path
         transform="scale(0.8) rotate(180) translate(12.5,0)"
         style="fill-rule:evenodd;stroke:#00ff00;stroke-width:1pt;stroke-opacity:1;fill:#00ff00;fill-opacity:1"
         d="M 0.0,0.0 L 5.0,-5.0 L -12.5,0.0 L 5.0,5.0 L 0.0,0.0 z "
         id="path856" />
    </marker>
  </defs>
  <sodipodi:namedview
     inkscape:document-rotation="0"
     inkscape:window-maximized="1"
     inkscape:window-y="25"
     inkscape:window-x="0"
     inkscape:window-height="1005"
     inkscape:window-width="1920"
     showgrid="false"
     inkscape:current-layer="layer2"
     inkscape:document-units="px"
     inkscape:cy="374.28571"
     inkscape:cx="511.42857"
     inkscape:zoom="0.7"
     inkscape:pageshadow="2"
     inkscape:pageopacity="0.0"
     borderopacity="1.0"
     bordercolor="#666666"
     pagecolor="#ffffff"
     id="base"
     inkscape:pagecheckerboard="0" />
  <metadata
     id="metadata7">
    <rdf:RDF>
      <cc:Work
         rdf:about="">
        <dc:format>image/svg+xml</dc:format>
        <dc:type
           rdf:resource="http://purl.org/dc/dcmitype/StillImage" />
        <dc:title />
      </cc:Work>
    </rdf:RDF>
  </metadata>
  <g
     style="display:inline"
     transform="translate(0,-308.26772)"
     id="layer1"
     inkscape:groupmode="layer"
     inkscape:label="image"
     sodipodi:insensitive="true">
    <image
       xlink:href="farcountry_ulsaj89.png"
       width="1015.8"
       height="644.40002"
       preserveAspectRatio="none"
       id="image4144"
       x="20.671421"
       y="367.30505" />
  </g>
  <g
     style="display:inline"
     inkscape:label="scale"
     id="layer3"
     inkscape:groupmode="layer"
     sodipodi:insensitive="true">
    <path
       sodipodi:nodetypes="cc"
       inkscape:connector-curvature="0"
       id="path4148"
       d="M 931.83509,252.40273 780.68204,124.88366"
       style="fill:none;fill-rule:evenodd;stroke:#00ff00;stroke-width:1.00031;stroke-linecap:butt;stroke-linejoin:miter;stroke-miterlimit:4;stroke-dasharray:none;stroke-opacity:1;marker-end:url(#Arrow1Lend)" />
    <path
       inkscape:connector-curvature="0"
       id="path4152"
       d="M 786.44698,318.78045 H 925.46923"
       style="fill:none;fill-rule:evenodd;stroke:#0000ff;stroke-width:1px;stroke-linecap:butt;stroke-linejoin:miter;stroke-opacity:1"
       sodipodi:nodetypes="cc" />
    <text
       xml:space="preserve"
       style="font-style:normal;font-weight:normal;font-size:37.5px;line-height:0.75;font-family:sans-serif;display:inline;fill:#000000;fill-opacity:1;stroke:none;stroke-width:0.9375"
       x="792.34192"
       y="237.93513"
       id="text863"><tspan
         sodipodi:role="line"
         id="tspan861"
         x="792.34192"
         y="237.93513"
         style="font-size:22.5px;text-align:center;text-anchor:middle;fill:#0000ff;stroke-width:0.9375">Scalebar </tspan><tspan
         sodipodi:role="line"
         x="792.34192"
         y="266.06012"
         style="font-size:22.5px;text-align:center;text-anchor:middle;fill:#0000ff;stroke-width:0.9375"
         id="tspan865">200 ft = 60.96 m</tspan></text>
  </g>
  <g
     style="display:inline"
     inkscape:label="survey"
     id="layer2"
     inkscape:groupmode="layer">
    <path
       sodipodi:nodetypes="cccccccccccccccc"
       inkscape:label="#path4156"
       inkscape:connector-curvature="0"
       id="toppassage"
       d="m 79.642857,102.30877 5.714286,17.85714 38.214287,12.5 7.5,17.85714 1.42857,11.07143 -3.92857,35.71429 L 120,238.02305 113.21429,258.3802 112.5,270.16591 l 11.78571,10.71429 1.78572,10 -8.57143,8.21428 -0.71429,21.78572 7.5,15.71428 17.5,13.57143 3.57143,20.35714"
       style="fill:none;fill-rule:evenodd;stroke:#ff0000;stroke-width:1px;stroke-linecap:butt;stroke-linejoin:miter;stroke-opacity:1" />
    <path
       inkscape:connector-curvature="0"
       id="path4158"
       d="m 230.71429,387.1302 -19.64286,-0.53572 -2.14286,-2.67857 -40.89286,-1.60714 -9.28571,-6.42857 -13.57143,-5.35715 -8.57143,0.53572 -2.85714,2.85714 1.25,5.35714 -5.71429,7.14286 -3.75,9.64286 -1.96428,7.32143"
       style="fill:none;fill-rule:evenodd;stroke:#ff0000;stroke-width:1px;stroke-linecap:butt;stroke-linejoin:miter;stroke-opacity:1"
       sodipodi:nodetypes="cccccccccccc" />
    <path
       inkscape:label="#path4160"
       sodipodi:nodetypes="ccccccccccccccccc"
       inkscape:connector-curvature="0"
       id="southgate"
       d="m 108.21429,104.80877 -0.71429,54.28571 20.96496,38.18025 4.39218,40.74832 36.42857,28.57143 L 195,245.16591 l 45,6.78571 26.07143,5 24.64286,35 85,5.71429 15.35714,17.85714 v 20.35715 l 35.71428,58.92857 37.14286,21.07143 18.92857,40 5.35715,40.71428 12.5,18.21429"
       style="fill:none;fill-rule:evenodd;stroke:#ff0000;stroke-width:1px;stroke-linecap:butt;stroke-linejoin:miter;stroke-opacity:1" />
    <path
       inkscape:label="#path4162"
       sodipodi:nodetypes="cccccccccccccccccccccccccc"
       inkscape:connector-curvature="0"
       id="easternway"
       d="m 357.594,520.59823 15.65737,4.79823 5.3033,16.16244 10.35406,-0.25254 37.37564,-5.55584 9.09138,-4.79822 9.09137,3.03045 37.62818,-5.80837 18.94036,-13.13199 14.64721,4.04061 15.78363,-1.70463 9.97526,-8.64943 26.26397,0.69448 -1.76777,-18.37215 2.02031,-18.43528 23.48605,-19.1929 4.41572,-19.6367 17.6783,-3.77539 40.53545,-2.3468 9.09138,-16.66752 6.31345,-24.24366 -9.34391,-7.82868 8.33376,-25.75889 -8.5863,-22.4759 -12.87944,-29.7995 12.12183,-14.89975"
       style="fill:none;fill-rule:evenodd;stroke:#ff0000;stroke-width:1px;stroke-linecap:butt;stroke-linejoin:miter;stroke-opacity:1" />
    <path
       inkscape:connector-curvature="0"
       id="path4164"
       d="m 378.21429,569.18377 9.375,-8.48215 0.0893,-6.60714 1.07143,-2.67857 0.26786,-10"
       style="fill:none;fill-rule:evenodd;stroke:#ff0000;stroke-width:1px;stroke-linecap:butt;stroke-linejoin:miter;stroke-opacity:1"
       sodipodi:nodetypes="ccccc" />
    <path
       sodipodi:nodetypes="ccccccccccccc"
       inkscape:connector-curvature="0"
       id="path4166"
       d="m 464.10197,415.92118 17.23572,0.88388 6.06091,3.03046 10.85914,-2.27285 4.29315,2.02031 10.10153,-3.03046 3.03045,-5.05076 6.31346,-2.27285 4.29315,-6.81853 28.53681,-2.52538 25.00127,-15.40482 h 29.29443 l 51.08667,-5.58517"
       style="fill:none;fill-rule:evenodd;stroke:#ff0000;stroke-width:1px;stroke-linecap:butt;stroke-linejoin:miter;stroke-opacity:1" />
    <path
       inkscape:label="#path4168"
       sodipodi:nodetypes="ccccccccc"
       inkscape:connector-curvature="0"
       id="northgate"
       d="m 646.86865,300.77559 -42.94008,-48.10968 -1.78571,-23.57143 4.64286,-4.64286 -8.21429,-14.28571 7.5,-26.78571 -9.64286,-28.21429 -0.35714,-26.42857 -11.42857,-23.92857"
       style="fill:none;fill-rule:evenodd;stroke:#ff0000;stroke-width:1px;stroke-linecap:butt;stroke-linejoin:miter;stroke-opacity:1" />
    <path
       sodipodi:nodetypes="ccccc"
       inkscape:connector-curvature="0"
       id="path4170"
       d="m 389.46429,414.98734 40,2.14286 7.67857,7.32142 16.60714,-1.25 10.15691,-7.56313"
       style="fill:none;fill-rule:evenodd;stroke:#ff0000;stroke-width:1px;stroke-linecap:butt;stroke-linejoin:miter;stroke-opacity:1" />
    <path
       sodipodi:nodetypes="cc"
       inkscape:connector-curvature="0"
       id="path4175"
       d="m 429.43344,417.19153 -2.72562,-22.40959"
       style="fill:none;fill-rule:evenodd;stroke:#ff0000;stroke-width:1px;stroke-linecap:butt;stroke-linejoin:miter;stroke-opacity:1" />
    <path
       inkscape:label="#path4177"
       sodipodi:nodetypes="cccccccccc"
       inkscape:connector-curvature="0"
       id="deepwell"
       d="m 567.67857,509.45162 18.92857,1.78572 12.85715,6.07143 36.78571,7.5 11.60714,8.03571 4.28572,21.60714 5,-7.85714 6.42857,-3.57143 4.64286,-5.35714 15.89285,-1.96429"
       style="fill:none;fill-rule:evenodd;stroke:#ff0000;stroke-width:1px;stroke-linecap:butt;stroke-linejoin:miter;stroke-opacity:1" />
    <path
       sodipodi:nodetypes="cccc"
       inkscape:connector-curvature="0"
       id="path4183"
       d="M 647.81251,533.02306 655,529.45162 l 9.64286,-0.98214 -7.5,18.12501"
       style="fill:none;fill-rule:evenodd;stroke:#ff0000;stroke-width:1px;stroke-linecap:butt;stroke-linejoin:miter;stroke-opacity:1" />
    <path
       sodipodi:nodetypes="cccccccccc"
       inkscape:label="#path4187"
       inkscape:connector-curvature="0"
       id="mountainhall"
       d="m 531.35556,517.34325 17.66235,35.07479 18.43528,24.45156 20.70813,-2.48075 11.61675,2.02031 1.76777,8.33376 10.10153,4.54568 -3.53554,29.29443 14.64721,20.20305 63.89215,30.05204"
       style="fill:none;fill-rule:evenodd;stroke:#ff0000;stroke-width:1px;stroke-linecap:butt;stroke-linejoin:miter;stroke-opacity:1" />
    <path
       sodipodi:nodetypes="cccc"
       inkscape:connector-curvature="0"
       id="path4189"
       d="m 608.11183,618.6146 -20.96066,-1.04172 -6.69226,-12.2481 38.38579,-17.29887"
       style="fill:none;fill-rule:evenodd;stroke:#ff0000;stroke-width:1px;stroke-linecap:butt;stroke-linejoin:miter;stroke-opacity:1" />
    <path
       sodipodi:nodetypes="cccc"
       inkscape:connector-curvature="0"
       id="path4191"
       d="m 567.45319,576.91424 -6.56599,11.49048 0.12627,25.75889 19.4531,-8.68324"
       style="fill:none;fill-rule:evenodd;stroke:#ff0000;stroke-width:1px;stroke-linecap:butt;stroke-linejoin:miter;stroke-opacity:1" />
    <path
       sodipodi:nodetypes="cccccccccccccccccc"
       inkscape:label="#path4193"
       inkscape:connector-curvature="0"
       id="surveyors"
       d="m 653.88525,427.68758 10.04332,13.19262 46.42857,8.57142 11.42858,25 20.71428,-8.57142 10,-27.85715 21.78572,-17.85714 20.35714,9.64286 24.28571,-3.57143 27.14286,37.14286 42.5,-28.21429 56.07143,-18.57143 L 960,406.23734 966.78572,393.3802 985,383.02305 l -0.71428,-18.21428 9.64285,-3.57143 18.57143,6.42857"
       style="fill:none;fill-rule:evenodd;stroke:#ff0000;stroke-width:1px;stroke-linecap:butt;stroke-linejoin:miter;stroke-opacity:1" />
    <path
       sodipodi:nodetypes="ccc"
       inkscape:connector-curvature="0"
       id="path4195"
       d="m 742.71466,465.86059 20.70813,-9.65958 14.89975,-1.26269"
       style="fill:none;fill-rule:evenodd;stroke:#ff0000;stroke-width:1px;stroke-linecap:butt;stroke-linejoin:miter;stroke-opacity:1" />
    <path
       inkscape:label="#path4197"
       inkscape:connector-curvature="0"
       id="indiachamber"
       d="m 846.07143,463.55877 -6.60714,14.46428 -13.03572,-0.17857 -16.42857,2.14286 -11.78571,6.42857 -16.25,0.71429 -18.75,15.89285 -0.89286,22.32143 3.57143,14.64286 -3.21429,14.10714 -13.92857,12.5 -12.5,5.71429 -7.14286,-0.35715"
       style="fill:none;fill-rule:evenodd;stroke:#ff0000;stroke-width:1px;stroke-linecap:butt;stroke-linejoin:miter;stroke-opacity:1"
       sodipodi:nodetypes="ccccccccccccc" />
    <path
       sodipodi:nodetypes="ccccc"
       inkscape:connector-curvature="0"
       id="path4199"
       d="m 944.6875,416.54984 -3.97321,-17.63393 12.14285,-21.96429 10.71429,-14.64285 20.53571,2.5"
       style="fill:none;fill-rule:evenodd;stroke:#ff0000;stroke-width:1px;stroke-linecap:butt;stroke-linejoin:miter;stroke-opacity:1" />
  </g>
</svg>
